<?xml version="1.0" encoding="UTF-8"?>
<svg width="79px" height="70px" viewBox="0 0 79 70" version="1.1" xmlns="http://www.w3.org/2000/svg" xmlns:xlink="http://www.w3.org/1999/xlink">
    <!-- Generator: Sketch 51 (57462) - http://www.bohemiancoding.com/sketch -->
    <title>Group 218 Copy</title>
    <desc>Created with Sketch.</desc>
    <defs></defs>
    <g id="Page-1" stroke="none" stroke-width="1" fill="none" fill-rule="evenodd">
        <g id="mobile" transform="translate(-20.000000, -966.000000)">
            <rect fill="#FFFFFF" x="0" y="0" width="320" height="5166"></rect>
            <g id="Group-218-Copy" transform="translate(20.000000, 967.000000)" stroke="#2196F3" stroke-linecap="round" stroke-linejoin="round">
                <path d="M54.7357143,54.3043125 L61.5071429,54.3043125 C70.8551,54.3043125 78.4357143,46.7476875 78.4357143,37.4293125 C78.4357143,28.1109375 70.8551,20.5543125 61.5071429,20.5543125 C61.4157286,20.5543125 61.3310857,20.5779375 61.2430571,20.5813125 C59.6077571,9.1231875 49.7519429,0.3043125 37.8071429,0.3043125 C24.7179714,0.3043125 14.1071429,10.8815625 14.1071429,23.9293125 C14.1071429,25.0869375 14.2188714,26.2175625 14.3813857,27.3313125 C14.2865857,27.3313125 14.2019429,27.3043125 14.1071429,27.3043125 C6.6281,27.3043125 0.564285714,33.3489375 0.564285714,40.8043125 C0.564285714,48.2596875 6.6281,54.3043125 14.1071429,54.3043125 L20.8785714,54.3043125" id="Stroke-208"></path>
                <path d="M27.65,67.8043125 L47.9642857,67.8043125" id="Stroke-210"></path>
                <path d="M27.65,61.0543125 L47.9642857,61.0543125" id="Stroke-212"></path>
                <path d="M27.65,54.3043125 L47.9642857,54.3043125" id="Stroke-214"></path>
                <path d="M27.65,47.5543125 L47.9642857,47.5543125" id="Stroke-216"></path>
            </g>
        </g>
    </g>
</svg>