<?xml version="1.0" encoding="UTF-8"?>
<svg width="67px" height="74px" viewBox="0 0 67 74" version="1.1" xmlns="http://www.w3.org/2000/svg" xmlns:xlink="http://www.w3.org/1999/xlink">
    <!-- Generator: Sketch 51 (57462) - http://www.bohemiancoding.com/sketch -->
    <title>Page 1</title>
    <desc>Created with Sketch.</desc>
    <defs></defs>
    <g id="Page-1" stroke="none" stroke-width="1" fill="none" fill-rule="evenodd">
        <g id="mobile" transform="translate(-19.000000, -1218.000000)">
            <rect fill="#FFFFFF" x="0" y="0" width="320" height="5166"></rect>
            <g id="Group-23" transform="translate(20.000000, 1219.000000)" stroke="#2196F3">
                <g id="Page-1">
                    <path d="M23.9782524,53.6103584 L29.2401571,45.8181506 L38.5246333,51.7374234 C39.1282048,52.1223584 39.4346333,52.8398649 39.2953476,53.5452156 C38.4748,57.7022026 36.531919,67.4006961 36.531919,67.4006961 C36.2765619,69.6616831 37.8898,71.7032416 40.1350857,71.9603844 C42.3803714,72.2175273 44.4074429,70.5930078 44.6631095,68.3320208 C44.6631095,68.3320208 47.8115857,52.9869818 48.1211095,51.4285403 C48.4306333,49.8700987 47.8115857,48.6233455 46.5734905,47.3765922 C45.3353952,46.129839 40.8473,42.2337351 39.7639667,41.142826 C38.6806333,40.0519169 38.5258714,39.2726961 39.144919,38.0259429 C39.7639667,36.7791896 45.2097286,25.8115013 46.2639667,23.6882805 C47.5020619,21.194774 46.2639667,19.0129558 43.7877762,17.4545143 C43.0455381,16.9872935 40.3830143,15.2726961 39.4544429,14.9610078 C38.5258714,14.6493195 30.7401095,13.1052156 28.2930143,12.602774 C24.5973,11.8441247 24.2877762,11.5324364 22.1211095,13.0908779 C19.9544429,14.6493195 11.3143952,20.7920727 11.3143952,20.7920727 C9.81165714,22.0684364 9.62068095,24.3297351 10.8878714,25.8432935 C12.1553714,27.3565403 14.4009667,27.5488519 15.9040143,26.2728 C15.9040143,26.2728 23.6687286,19.9480208 24.5973,19.3246442 C25.5258714,18.7012675 26.7639667,19.3246442 26.7639667,19.3246442 C26.7639667,19.3246442 28.6211095,19.9480208 30.7877762,20.5713974 C32.9544429,21.194774 31.4068238,23.3765922 31.4068238,23.3765922 C31.4068238,23.3765922 26.144919,31.7921766 24.5973,33.9739948 C23.0707286,36.1262026 22.7401571,39.5843844 22.7401571,39.5843844 L17.7877762,47.6882805 C17.1687286,48.6233455 15.6211095,48.5921766 15.6211095,48.5921766 C12.5605381,48.6161766 3.8870619,48.6426701 3.8870619,48.6426701 C1.63620476,48.8424623 -0.0277952381,50.8422545 0.170919048,53.1091636 C0.36932381,55.375761 2.35522857,57.0510857 4.60639524,56.8512935 L15.6211095,56.8282286 C15.6211095,56.8282286 19.3353952,57.0389299 20.8830143,56.4155532 C22.4306333,55.7921766 23.9782524,53.6103584 23.9782524,53.6103584 Z" id="Stroke-1"></path>
                    <path d="M46.8830143,21.8181506 C46.8830143,21.8181506 49.9782524,29.9220468 50.9068238,32.4155532 C51.3927762,33.7209039 52.144919,33.5734753 53.6925381,33.5734753 C55.0853952,33.5734753 61.010919,33.5544623 61.010919,33.5544623 C62.9782524,33.5544623 64.5237048,34.7781506 64.6883714,36.6576312 C64.8530381,38.5371117 63.4734905,40.1949818 61.6067524,40.3608 C61.6067524,40.3608 52.0811571,40.4025662 50.2877762,40.4025662 C48.4943952,40.4025662 47.6902524,39.9630857 46.8830143,38.3376312 L43.1687286,30.8571117" id="Stroke-3"></path>
                    <path d="M56.4782524,6.85711169 C56.4782524,10.5580987 53.4987762,13.5584104 49.8234905,13.5584104 C46.1482048,13.5584104 43.1687286,10.5580987 43.1687286,6.85711169 C43.1687286,3.15612468 46.1482048,0.155812987 49.8234905,0.155812987 C53.4987762,0.155812987 56.4782524,3.15612468 56.4782524,6.85711169 Z" id="Stroke-5"></path>
                    <path d="M22.7401571,39.5843844 C22.7401571,39.5843844 23.6687286,41.7662026 25.5258714,43.3246442 C27.3830143,44.8830857 29.2401571,45.8181506 29.2401571,45.8181506" id="Stroke-7"></path>
                </g>
            </g>
        </g>
    </g>
</svg>