<?xml version="1.0" encoding="UTF-8"?>
<svg width="36px" height="36px" viewBox="0 0 36 36" version="1.1" xmlns="http://www.w3.org/2000/svg" xmlns:xlink="http://www.w3.org/1999/xlink">
    <!-- Generator: Sketch 51 (57462) - http://www.bohemiancoding.com/sketch -->
    <title>Group</title>
    <desc>Created with Sketch.</desc>
    <defs>
        <path d="M16.9026667,0 C7.65013333,0.552133333 0.280266667,8.0936 0,17.4170667 L0,18.5182667 C0.290933333,28.2046667 8.23493333,35.9676 17.9917333,35.9676 C27.9328,35.9676 35.9917333,27.9088 35.9917333,17.9676 C35.9917333,8.39213333 28.5149333,0.563066667 19.0806667,0 L16.9026667,0 Z" id="path-1"></path>
        <path d="M0.0993421053,15.1661333 C0.0993421053,22.4012 5.15907895,28.5785333 12.0776316,29.9677333 C12.8511842,30.1232 13.5718421,29.5234667 13.5718421,28.7245333 L13.5718421,13.5230667 C13.5718421,12.8230667 13.0117105,12.2554667 12.3207895,12.2554667 C11.63,12.2554667 11.07,12.8230667 11.07,13.5230667 L11.07,27.0810667 C6.09697368,25.406 2.60118421,20.6509333 2.60118421,15.1661333 C2.60118421,8.2324 8.14592105,2.61173333 14.9852632,2.61173333 C21.8248684,2.61173333 27.3694737,8.2324 27.3694737,15.1661333 C27.3694737,20.628 23.9023684,25.368 18.9592105,27.0612 L18.9592105,13.5230667 C18.9592105,12.8230667 18.3992105,12.2554667 17.7084211,12.2554667 C17.0175,12.2554667 16.4573684,12.8230667 16.4573684,13.5230667 L16.4573684,28.7125333 C16.4573684,29.5138667 17.1819737,30.114 17.9569737,29.9548 C24.845,28.5397333 29.8714474,22.3768 29.8714474,15.1661333 C29.8714474,6.83253333 23.2068421,0.0765333333 14.9852632,0.0765333333 C6.76394737,0.0765333333 0.0993421053,6.83253333 0.0993421053,15.1661333 Z M5.85368421,15.1804 C5.85368421,16.0254667 5.96684211,16.8569333 6.18789474,17.6576 C6.37407895,18.3317333 7.06434211,18.7253333 7.72960526,18.5366667 C8.39486842,18.3481333 8.78342105,17.6485333 8.59723684,16.9742667 C8.43736842,16.3956 8.35552632,15.794 8.35552632,15.1804 C8.35552632,11.4630667 11.3760526,8.44266667 15.1105263,8.44266667 C18.8448684,8.44266667 21.8653947,11.4630667 21.8653947,15.1804 C21.8653947,15.7892 21.7847368,16.386 21.6275,16.9606667 C21.4426316,17.6352 21.8327632,18.3338667 22.4984211,18.5210667 C23.1640789,18.7081333 23.8535526,18.3132 24.0382895,17.6385333 C24.2559211,16.8436 24.3673684,16.0188 24.3673684,15.1804 C24.3673684,10.0553333 20.2192105,5.9076 15.1105263,5.9076 C10.0018421,5.9076 5.85368421,10.0553333 5.85368421,15.1804 Z" id="path-3"></path>
    </defs>
    <g id="Page-1" stroke="none" stroke-width="1" fill="none" fill-rule="evenodd">
        <g id="Desktop-Copy-10" transform="translate(-78.000000, -15.000000)">
            <rect fill="#FFFFFF" x="0" y="0" width="1157" height="2883"></rect>
            <g id="Group" transform="translate(78.000000, 15.000000)">
                <g id="Group-3">
                    <mask id="mask-2" fill="white">
                        <use xlink:href="#path-1"></use>
                    </mask>
                    <g id="Clip-2"></g>
                    <polygon id="Fill-1" fill="#2196F3" mask="url(#mask-2)" points="-1.94253333 37.9018667 37.926 37.9018667 37.926 -1.96666667 -1.94253333 -1.96666667"></polygon>
                </g>
                <g id="Group-6" transform="translate(3.000000, 3.000000)">
                    <mask id="mask-4" fill="white">
                        <use xlink:href="#path-3"></use>
                    </mask>
                    <g id="Clip-5"></g>
                    <polygon id="Fill-4" fill="#FFFFFF" mask="url(#mask-4)" points="-1.80947368 31.9266667 31.7801316 31.9266667 31.7801316 -1.85773333 -1.80947368 -1.85773333"></polygon>
                </g>
            </g>
        </g>
    </g>
</svg>